<svg xmlns="http://www.w3.org/2000/svg" width="230" height="253" viewBox="0 0 230 253" fill="none">
<path d="M-9.00001 136.208C-8.31158 167.418 4.58093 197.117 26.9165 218.947C49.2521 240.776 79.255 253 110.5 253C141.745 253 171.748 240.776 194.083 218.947C216.419 197.117 229.312 167.418 230 136.208L230 -2.57058e-05L-8.99999 -1.52588e-05L-9.00001 136.208ZM186.606 136.208C186.611 134.443 187.315 132.753 188.564 131.505C189.812 130.257 191.505 129.554 193.271 129.549C195.025 129.556 196.705 130.251 197.951 131.485C198.576 132.103 199.074 132.838 199.414 133.649C199.755 134.459 199.932 135.329 199.936 136.208C199.915 159.901 190.486 182.617 173.718 199.37C156.95 216.123 134.214 225.544 110.5 225.565C108.734 225.56 107.042 224.856 105.793 223.609C104.544 222.361 103.84 220.67 103.835 218.906C103.84 217.141 104.544 215.45 105.793 214.203C107.042 212.955 108.734 212.252 110.5 212.246C130.671 212.201 150.002 204.175 164.265 189.925C178.528 175.675 186.56 156.361 186.606 136.208Z" fill="white" fill-opacity="0.05"/>
</svg>