<svg xmlns="http://www.w3.org/2000/svg" width="67" height="147" viewBox="0 0 67 147" fill="none">
  <path d="M67 33.5761C66.8077 24.8523 63.2072 16.5506 56.9695 10.4488C50.7317 4.34704 42.3527 0.930297 33.6269 0.930296C24.901 0.930296 16.522 4.34704 10.2842 10.4488C4.0465 16.5506 0.445968 24.8523 0.253706 33.5761L0.253712 71.6489L67 71.6489L67 33.5761ZM12.3726 33.5761C12.3711 34.0693 12.1745 34.5419 11.8258 34.8906C11.477 35.2394 11.0044 35.436 10.5112 35.4374C10.0214 35.4354 9.55204 35.2411 9.20426 34.8962C9.02952 34.7235 8.89059 34.5179 8.79544 34.2914C8.70029 34.0648 8.6508 33.8218 8.6498 33.5761C8.6555 26.9535 11.2888 20.6038 15.9717 15.9209C20.6546 11.238 27.0043 8.6047 33.6269 8.599C34.1201 8.60046 34.5927 8.79704 34.9414 9.14581C35.2902 9.49457 35.4868 9.96717 35.4883 10.4604C35.4868 10.9536 35.2902 11.4262 34.9414 11.775C34.5927 12.1237 34.1201 12.3203 33.6269 12.3218C27.9938 12.3344 22.595 14.5777 18.6118 18.561C14.6285 22.5442 12.3852 27.9429 12.3726 33.5761Z" fill="white" fill-opacity="0.05"/>
  <path d="M67 113.418L67 75.3717L0.253708 75.3717L0.253706 113.418C0.445967 122.142 4.04649 130.444 10.2842 136.545C16.522 142.647 24.901 146.064 33.6269 146.064C42.3527 146.064 50.7317 142.647 56.9695 136.545C63.2072 130.444 66.8077 122.142 67 113.418Z" fill="white" fill-opacity="0.05"/>
</svg>